PathFileType	4	(X/Y/Z)	./resultDataOpenSim/trcMotMarkerGrf/sub06/qtm-12-08.trc
DataRate	CameraRate	NumFrames	NumMarkers	Units	OrigDataRate	OrigDataStartFrame	OrigNumFrames
250.000000	250.000000	14	24	m	250.000000	195	519
Frame#	Time	L.Toe.Tip			R.Toe.Tip			L.Ankle.Lat			R.Ankle.Lat			L.Ankle.Med			R.Ankle.Med			L.Heel			R.Heel			L.Knee.Lat			R.Knee.Lat			L.Knee.Med			R.Knee.Med			L.Thigh.Upper			R.Thigh.Upper			L.ASIS			R.ASIS			V.Sacral			L.Acromium			R.Acromium			C7			L.Elbow			R.Elbow			L.Wrist.Lat			R.Wrist.Lat
		X1	Y1	Z1	X2	Y2	Z2	X3	Y3	Z3	X4	Y4	Z4	X5	Y5	Z5	X6	Y6	Z6	X7	Y7	Z7	X8	Y8	Z8	X9	Y9	Z9	X10	Y10	Z10	X11	Y11	Z11	X12	Y12	Z12	X13	Y13	Z13	X14	Y14	Z14	X15	Y15	Z15	X16	Y16	Z16	X17	Y17	Z17	X18	Y18	Z18	X19	Y19	Z19	X20	Y20	Z20	X21	Y21	Z21	X22	Y22	Z22	X23	Y23	Z23	X24	Y24	Z24

195	0.776	0.11883573	0.0092540744	-0.04175823	-0.42205372	0.094793064	0.11213787	-0.0021341464	0.041280602	-0.07263601	-0.43618191	0.23444882	0.12974952	-0.0087961316	0.055733153	0.014845146	-0.39305934	0.21897709	0.051414916	-0.081259842	0.015561959	-0.033146309	-0.46009328	0.27360547	0.06218611	0.082904159	0.40532155	-0.091970235	-0.093452506	0.3702409	0.19392812	0.049385976	0.40726136	0.025687829	-0.085057995	0.35038861	0.060255934	-0.059153602	0.77538331	-0.16774987	-0.15682471	0.72791479	0.16128521	-0.0076081826	0.81218609	-0.10563467	-0.052722794	0.78969798	0.13670887	-0.21608699	0.87813027	-0.0078002773	-0.077980077	1.2718226	-0.18510241	-0.10719591	1.2765775	0.17842036	-0.16877845	1.3182062	-0.011746575	-0.17059106	0.97319809	-0.22994082	-0.17812231	0.96362658	0.25141051	-0.091950752	0.74865763	-0.28383284	0.0071348314	0.79907461	0.27012532
196	0.78	0.11872887	0.0092705449	-0.041865099	-0.40467665	0.09555113	0.11319169	-0.0022380306	0.041348188	-0.072698759	-0.42111021	0.23494286	0.13054133	-0.0089414636	0.055860891	0.014726278	-0.37794226	0.21987913	0.052262718	-0.08135208	0.015585004	-0.033157499	-0.44594222	0.27365529	0.062980784	0.08417879	0.40522054	-0.092071312	-0.079985226	0.37325413	0.1941875	0.049755431	0.40773522	0.025494831	-0.071525587	0.3532399	0.060405356	-0.054002499	0.77674447	-0.16821817	-0.15016518	0.72990999	0.1607089	-0.0022535101	0.8137079	-0.10625474	-0.046973817	0.79191097	0.13654036	-0.2112174	0.88046647	-0.007369183	-0.071181822	1.2740812	-0.18467611	-0.10133249	1.2786221	0.17876903	-0.16221623	1.320262	-0.011557505	-0.16192805	0.97461334	-0.2298528	-0.17335985	0.96588879	0.25070584	-0.080465648	0.75092357	-0.28349043	0.0093922215	0.79884154	0.27000934
197	0.784	0.11862567	0.0093016457	-0.041974741	-0.38713068	0.096091012	0.11422078	-0.0023630302	0.041415676	-0.072767871	-0.40605307	0.23515903	0.131381	-0.0091061589	0.055943577	0.01467539	-0.36278006	0.22056626	0.053189204	-0.081456187	0.01560387	-0.033170698	-0.43181736	0.27338165	0.063758739	0.085290925	0.40522232	-0.092127905	-0.06659386	0.3764817	0.19436155	0.050203792	0.40812371	0.025350939	-0.057912266	0.35621086	0.0604835	-0.048892465	0.77809601	-0.1686894	-0.14367402	0.73206531	0.16039784	0.0031620704	0.81531943	-0.10686865	-0.041207087	0.79420668	0.13635231	-0.2065496	0.88280959	-0.0069697321	-0.064469653	1.2764332	-0.184229	-0.095483932	1.2807284	0.17913017	-0.15569709	1.3223423	-0.01132616	-0.15334216	0.97610878	-0.22974504	-0.16870409	0.96824	0.25004288	-0.068886587	0.75333086	-0.28310376	0.011604514	0.7987209	0.26990908
198	0.788	0.11852462	0.0093334076	-0.042068463	-0.36941014	0.096430976	0.11523491	-0.0024837729	0.041481415	-0.072829383	-0.39094917	0.2350758	0.13222062	-0.0092857026	0.055978682	0.014692931	-0.34755369	0.22104884	0.054073176	-0.081562251	0.015615025	-0.033169051	-0.41771807	0.27279989	0.064560554	0.08624078	0.40530351	-0.092153657	-0.053273115	0.37990929	0.19446246	0.050728837	0.4084374	0.025246598	-0.044339531	0.35926989	0.060508143	-0.043904486	0.7793983	-0.16915374	-0.13725058	0.73432693	0.16027078	0.0085871353	0.81700481	-0.10748589	-0.035409049	0.79656842	0.13614348	-0.20131318	0.88507541	-0.0070195269	-0.057752345	1.2788588	-0.18378573	-0.089625553	1.2828803	0.1794916	-0.14921124	1.3244475	-0.011060656	-0.14481019	0.97766801	-0.22975152	-0.16409564	0.97066472	0.24942292	-0.057218343	0.75587546	-0.28265106	0.013769755	0.79870746	0.26982477
199	0.792	0.11841974	0.0093588361	-0.042144738	-0.351465	0.096624324	0.1162659	-0.0025792966	0.04155259	-0.072868618	-0.37569209	0.23468528	0.13301148	-0.0094757963	0.056003339	0.014720396	-0.33220054	0.22133662	0.05479391	-0.081652302	0.015618899	-0.033123304	-0.40365423	0.2719538	0.065427094	0.087029235	0.40543146	-0.092161453	-0.040029247	0.38352469	0.19449752	0.051297814	0.40868698	0.025155649	-0.030936413	0.36243119	0.060471863	-0.039142122	0.78064233	-0.16960561	-0.13080344	0.73666302	0.16024284	0.013956746	0.81873958	-0.10810669	-0.029578968	0.79898786	0.13590986	-0.19538574	0.88727356	-0.0075209967	-0.050974917	1.2813418	-0.18336471	-0.083747697	1.2850639	0.17983999	-0.1427577	1.3265737	-0.01077253	-0.13638394	0.97928815	-0.22989007	-0.15949397	0.97316555	0.24883761	-0.045464496	0.75855556	-0.28211516	0.015835447	0.79881013	0.26975421
200	0.796	0.11830759	0.0093810787	-0.042215338	-0.33323588	0.096726766	0.11735333	-0.0026552952	0.041633107	-0.072884448	-0.36016178	0.23403147	0.13375163	-0.0096820641	0.05607505	0.014682492	-0.31673945	0.22142759	0.055319985	-0.081709936	0.015624585	-0.033020756	-0.38966579	0.27087857	0.066367116	0.087655391	0.40558035	-0.092160079	-0.026877223	0.38731492	0.19446604	0.051828624	0.40886412	0.025038586	-0.017683514	0.36575901	0.060338447	-0.034610409	0.78186623	-0.17001836	-0.12428459	0.73907942	0.16025688	0.019248683	0.82051294	-0.10872517	-0.023730269	0.80146494	0.1356474	-0.18922912	0.88947042	-0.0081002048	-0.044189628	1.2838694	-0.18296077	-0.077844583	1.2872684	0.18016551	-0.136339	1.32871	-0.010471914	-0.12810618	0.980966	-0.23012187	-0.15489942	0.97574949	0.24828233	-0.033650507	0.76136273	-0.28150564	0.017728333	0.79904515	0.26969867
201	0.8	0.11818731	0.009404167	-0.042291085	-0.31473485	0.096734581	0.11849068	-0.0027515848	0.041710438	-0.072898744	-0.34431741	0.23318905	0.1344666	-0.0099318716	0.056224351	0.014566178	-0.30130229	0.22130894	0.055720493	-0.081748263	0.015652613	-0.032927429	-0.37575656	0.26955499	0.067352366	0.088115538	0.40573372	-0.092156155	-0.013833673	0.39126472	0.19436374	0.052218242	0.40895266	0.024873592	-0.0044923247	0.36931087	0.060094371	-0.030191234	0.78312684	-0.170365	-0.11765536	0.74159761	0.1602733	0.024483372	0.82232993	-0.10933889	-0.017866262	0.80399662	0.13535061	-0.18327281	0.89171224	-0.0084382212	-0.037511998	1.2864342	-0.18254867	-0.071903517	1.2894845	0.18046365	-0.12994715	1.3308429	-0.010162376	-0.11993814	0.98269162	-0.23040579	-0.15034084	0.97840981	0.24775739	-0.021855669	0.76426982	-0.28086474	0.019428602	0.79941436	0.26966483
202	0.804	0.11806135	0.0094288194	-0.042375904	-0.29604349	0.096591834	0.11962372	-0.0029112061	0.041770328	-0.072945858	-0.32832384	0.23215762	0.13514807	-0.010238891	0.056434544	0.014428801	-0.28592397	0.2209684	0.056136269	-0.081823241	0.01572033	-0.032980383	-0.36179864	0.26787379	0.06832037	0.088423116	0.40588332	-0.092150129	-0.00090909777	0.3953571	0.19419018	0.052429461	0.40896424	0.024685969	0.0086290277	0.37308797	0.059768464	-0.025797779	0.7844454	-0.17066358	-0.11088493	0.74422337	0.16028153	0.029693664	0.8241956	-0.10994837	-0.011966041	0.80657078	0.13501138	-0.17765808	0.89400368	-0.0084424999	-0.030994979	1.2890325	-0.18210954	-0.065912126	1.2916994	0.18073521	-0.12356735	1.3329631	-0.0098414572	-0.11177051	0.9844473	-0.23069333	-0.14584282	0.98112503	0.24726139	-0.010129236	0.7672515	-0.28021806	0.021011459	0.79989524	0.26965884
203	0.808	0.11793472	0.0094544509	-0.042468339	-0.27721229	0.096268064	0.12072098	-0.003129276	0.041821656	-0.07303552	-0.31249017	0.23082307	0.13578146	-0.010543075	0.056659782	0.014322855	-0.27044107	0.22039392	0.056731928	-0.081979462	0.015807857	-0.033207707	-0.34757198	0.26566607	0.069186356	0.088626134	0.40602778	-0.092128135	0.011894996	0.39956931	0.19395103	0.052507833	0.40893655	0.024515288	0.021612509	0.37704746	0.05938424	-0.021440157	0.78579892	-0.17094842	-0.10400253	0.74693165	0.16032386	0.034914617	0.82610465	-0.11055357	-0.0060023806	0.80917333	0.13462416	-0.17234012	0.89632646	-0.0081594326	-0.024598263	1.2916556	-0.18164631	-0.059866439	1.2938955	0.18098443	-0.1171929	1.3350661	-0.009508446	-0.10348549	0.98621484	-0.23089672	-0.14140608	0.9838718	0.24679024	0.0015905772	0.77031126	-0.27954051	0.02258744	0.80046151	0.26968183
204	0.812	0.11781072	0.0094805561	-0.042564016	-0.25821816	0.095785252	0.1218091	-0.0033556485	0.041888678	-0.073139399	-0.2969847	0.22908376	0.13643245	-0.01072976	0.056862714	0.0142427	-0.25471756	0.21958025	0.057538831	-0.082192114	0.015862983	-0.0334305	-0.33297231	0.26285532	0.069904632	0.088787024	0.40616984	-0.092068149	0.024579028	0.40386956	0.19365182	0.052532484	0.40890459	0.02436627	0.034435053	0.38115652	0.058945526	-0.017115397	0.78716452	-0.17121759	-0.097117272	0.74968739	0.16048119	0.040190065	0.82804443	-0.11115323	4.2483326e-05	0.81179526	0.13419006	-0.16722243	0.89865753	-0.0076710741	-0.018254619	1.2942891	-0.1811737	-0.053769102	1.296059	0.18121307	-0.1108267	1.3371468	-0.0091697175	-0.094995967	0.98798913	-0.23090386	-0.13701967	0.98663261	0.24633906	0.013387072	0.77346554	-0.27880016	0.024211475	0.80110278	0.26973204
205	0.816	0.11769113	0.0095062686	-0.042656148	-0.239015	0.095182168	0.12293708	-0.0035529945	0.041985732	-0.073228702	-0.28168612	0.22697579	0.13721717	-0.010736334	0.057040438	0.014160893	-0.23884204	0.21857119	0.058358708	-0.082409657	0.015862491	-0.033488533	-0.31814758	0.25957703	0.070545328	0.088942485	0.40631245	-0.091959617	0.037138485	0.4082293	0.19329489	0.052599003	0.40889533	0.024219824	0.04710225	0.38541963	0.058462219	-0.012747002	0.78854137	-0.17146032	-0.090338009	0.75247239	0.16080225	0.045544584	0.83000041	-0.1117457	0.0061747484	0.81443223	0.13371493	-0.16222159	0.9009766	-0.00704753	-0.011919159	1.29692	-0.18070475	-0.047629098	1.2981848	0.18141946	-0.10447259	1.339199	-0.0088342301	-0.086300133	0.98978289	-0.23068153	-0.13267918	0.98939435	0.24590378	0.025268455	0.77671776	-0.27799183	0.025872236	0.8018161	0.2698075
206	0.82	0.11758092	0.0095301734	-0.042736086	-0.21959771	0.09448904	0.12412354	-0.0037241495	0.0421092	-0.073298167	-0.26633604	0.22464339	0.13817058	-0.010628742	0.05720928	0.014086014	-0.22300298	0.21745907	0.058956297	-0.082611154	0.015847441	-0.033437661	-0.30335253	0.25606444	0.071279252	0.089094173	0.40645532	-0.091810321	0.049568996	0.41263556	0.19288537	0.052764805	0.40891747	0.024060193	0.059596637	0.38984846	0.057953488	-0.0082307316	0.7899317	-0.17168276	-0.083677516	0.75527749	0.16126189	0.050912005	0.83195352	-0.11233612	0.012388148	0.81708314	0.13320577	-0.15727636	0.90326649	-0.0063415928	-0.0055795578	1.2995393	-0.1802467	-0.04145716	1.3002677	0.18160543	-0.098128769	1.3412164	-0.0085051289	-0.077552418	0.99161399	-0.23039029	-0.12838535	0.99214573	0.24548173	0.03719321	0.780056	-0.27712385	0.027539302	0.80259404	0.26990638
207	0.824	0.11748867	0.0095511866	-0.042796483	-0.20002895	0.09372481	0.12533772	-0.0038959721	0.042240867	-0.07335689	-0.25075459	0.22222423	0.13919186	-0.010553059	0.057376839	0.014052393	-0.20728234	0.21628564	0.059305435	-0.082778177	0.015888602	-0.033415889	-0.28871057	0.25244454	0.072258235	0.089230063	0.4065939	-0.09163587	0.061871022	0.41708225	0.1924336	0.052981226	0.40895669	0.02389961	0.071880094	0.39443141	0.057444572	-0.0034985791	0.79132692	-0.17187279	-0.077066953	0.75809257	0.16185481	0.056155719	0.83388191	-0.11293741	0.018671127	0.81974566	0.13266768	-0.15233739	0.90551148	-0.0055972562	0.00075644553	1.3021379	-0.17980168	-0.035256951	1.3022961	0.18177662	-0.091787013	1.3431921	-0.0081769964	-0.068959145	0.99348438	-0.23031234	-0.12413468	0.99487603	0.24507252	0.049121427	0.78346173	-0.27620623	0.029194141	0.80342654	0.27002988
208	0.828	0.1174204	0.0095696917	-0.042836702	-0.180372	0.0929076	0.12655195	-0.0041064221	0.042359038	-0.073434375	-0.23491223	0.21977386	0.14013765	-0.010587754	0.057541955	0.01407422	-0.19163519	0.2149903	0.059569131	-0.082881433	0.016020042	-0.033459684	-0.27415638	0.24869499	0.073471953	0.089343304	0.40672271	-0.091448329	0.07403974	0.42156118	0.19194975	0.0531051	0.40900779	0.023814512	0.083931769	0.39914427	0.056965561	0.0014419008	0.79271156	-0.17199494	-0.070445164	0.76091639	0.16267338	0.061253845	0.83577761	-0.11355217	0.025016182	0.82240763	0.13210232	-0.14735836	0.90769624	-0.0048564712	0.0070839343	1.3047039	-0.17936788	-0.029029162	1.3042587	0.18193732	-0.08544018	1.3451163	-0.0078439996	-0.060555677	0.99537031	-0.23058228	-0.11991885	0.99757491	0.24467763	0.061039343	0.7869188	-0.27524251	0.03083739	0.80430412	0.27018313
